<svg width="71" height="71" viewBox="0 0 71 71" fill="none" xmlns="http://www.w3.org/2000/svg">
<path fill-rule="evenodd" clip-rule="evenodd" d="M36.3154 5.50038C35.7981 5.29121 35.2209 5.29121 34.7036 5.50038L8.84517 15.9357L35.5095 26.6946L62.1738 15.9357L36.3154 5.50038ZM65.8394 19.1665L37.6759 30.533V65.166L65.8394 53.7995V19.1708V19.1665ZM33.3431 65.1704V30.5286L5.17958 19.1665V53.8038L33.3431 65.1704ZM33.0961 1.43903C34.6454 0.813863 36.3736 0.813863 37.9229 1.43903L68.8117 13.9073C69.2133 14.0696 69.5575 14.3496 69.8 14.7112C70.0425 15.0727 70.1721 15.4992 70.1722 15.9357V53.8038C70.1717 54.6774 69.9118 55.5308 69.426 56.2539C68.9402 56.977 68.2509 57.5367 67.4469 57.8608L36.3154 70.4252C35.7981 70.6344 35.2209 70.6344 34.7036 70.4252L3.57643 57.8608C2.77161 57.5374 2.08135 56.978 1.59477 56.2548C1.10819 55.5316 0.847635 54.6779 0.846741 53.8038L0.846741 15.9357C0.846841 15.4992 0.976482 15.0727 1.21896 14.7112C1.46144 14.3496 1.80565 14.0696 2.20725 13.9073L33.0961 1.43903Z" fill="#005AD5"/>
</svg>
